{
  "accessors": [
    {
      "bufferView": 0,
      "componentType": 5126,
      "count": 1153,
      "max": [
        5.550000190734863,
        1.0499999523162842,
        16.700000762939453
      ],
      "min": [
        -5.684000492095947,
        -31.049997329711914,
        0.0
      ],
      "type": "VEC3"
    },
    {
      "bufferView": 0,
      "byteOffset": 12,
      "componentType": 5126,
      "count": 1153,
      "type": "VEC3"
    },
    {
      "bufferView": 1,
      "componentType": 5125,
      "count": 2556,
      "type": "SCALAR"
    },
    {
      "bufferView": 2,
      "componentType": 5126,
      "count": 202,
      "max": [
        11.230992317199707,
        2.6929931640625,
        0.15730899572372437
      ],
      "min": [
        8.722570419311523,
        -4.409470558166504,
        -0.4071757197380066
      ],
      "type": "VEC3"
    },
    {
      "bufferView": 2,
      "byteOffset": 12,
      "componentType": 5126,
      "count": 202,
      "type": "VEC3"
    },
    {
      "bufferView": 3,
      "componentType": 5125,
      "count": 516,
      "type": "SCALAR"
    },
    {
      "bufferView": 4,
      "componentType": 5126,
      "count": 700,
      "max": [
        2.768986701965332,
        5.630309104919434,
        8.357304573059082
      ],
      "min": [
        -3.2891485691070557,
        -4.532926082611084,
        -0.14243555068969727
      ],
      "type": "VEC3"
    },
    {
      "bufferView": 4,
      "byteOffset": 12,
      "componentType": 5126,
      "count": 700,
      "type": "VEC3"
    },
    {
      "bufferView": 5,
      "componentType": 5125,
      "count": 2082,
      "type": "SCALAR"
    },
    {
      "bufferView": 6,
      "componentType": 5126,
      "count": 700,
      "max": [
        2.768986701965332,
        5.630309104919434,
        8.357304573059082
      ],
      "min": [
        -3.2891485691070557,
        -4.532926082611084,
        -0.14243555068969727
      ],
      "type": "VEC3"
    },
    {
      "bufferView": 6,
      "byteOffset": 12,
      "componentType": 5126,
      "count": 700,
      "type": "VEC3"
    },
    {
      "bufferView": 7,
      "componentType": 5125,
      "count": 2082,
      "type": "SCALAR"
    },
    {
      "bufferView": 8,
      "componentType": 5126,
      "count": 72,
      "max": [
        5.0,
        2.25,
        10.100000381469727
      ],
      "min": [
        -5.0,
        -2.25,
        0.0
      ],
      "type": "VEC3"
    },
    {
      "bufferView": 8,
      "byteOffset": 12,
      "componentType": 5126,
      "count": 72,
      "type": "VEC3"
    },
    {
      "bufferView": 9,
      "componentType": 5125,
      "count": 132,
      "type": "SCALAR"
    }
  ],
  "asset": {
    "version": "2.0"
  },
  "bufferViews": [
    {
      "buffer": 0,
      "byteLength": 36896,
      "byteStride": 32,
      "target": 34962
    },
    {
      "buffer": 0,
      "byteLength": 10224,
      "byteOffset": 36896,
      "target": 34963
    },
    {
      "buffer": 0,
      "byteLength": 6464,
      "byteOffset": 47120,
      "byteStride": 32,
      "target": 34962
    },
    {
      "buffer": 0,
      "byteLength": 2064,
      "byteOffset": 53584,
      "target": 34963
    },
    {
      "buffer": 0,
      "byteLength": 22400,
      "byteOffset": 55648,
      "byteStride": 32,
      "target": 34962
    },
    {
      "buffer": 0,
      "byteLength": 8328,
      "byteOffset": 78048,
      "target": 34963
    },
    {
      "buffer": 0,
      "byteLength": 22400,
      "byteOffset": 86376,
      "byteStride": 32,
      "target": 34962
    },
    {
      "buffer": 0,
      "byteLength": 8328,
      "byteOffset": 108776,
      "target": 34963
    },
    {
      "buffer": 0,
      "byteLength": 2304,
      "byteOffset": 117104,
      "byteStride": 32,
      "target": 34962
    },
    {
      "buffer": 0,
      "byteLength": 528,
      "byteOffset": 119408,
      "target": 34963
    }
  ],
  "buffers": [
    {
      "byteLength": 119936,
      "uri": "desktop.bin"
    }
  ],
  "materials": [
    {
      "name": "mesa",
      "pbrMetallicRoughness": {
        "baseColorFactor": [
          0.044552598148584366,
          0.044552598148584366,
          0.044552598148584366,
          1.0
        ],
        "metallicFactor": 0.0,
        "roughnessFactor": 0.0
      }
    },
    {
      "name": "teclado_y_ordenador",
      "pbrMetallicRoughness": {
        "baseColorFactor": [
          0.008373119868338108,
          0.008373119868338108,
          0.008373119868338108,
          1.0
        ],
        "metallicFactor": 0.0,
        "roughnessFactor": 0.0
      }
    },
    {
      "name": "pantallas",
      "pbrMetallicRoughness": {
        "baseColorFactor": [
          0.01891300082206726,
          0.01891300082206726,
          0.01891300082206726,
          1.0
        ],
        "metallicFactor": 0.0,
        "roughnessFactor": 0.0
      }
    }
  ],
  "meshes": [
    {
      "name": "MesaEscala1:5",
      "primitives": [
        {
          "attributes": {
            "NORMAL": 1,
            "POSITION": 0
          },
          "indices": 2,
          "material": 0,
          "mode": 4
        }
      ]
    },
    {
      "name": "Teclado",
      "primitives": [
        {
          "attributes": {
            "NORMAL": 4,
            "POSITION": 3
          },
          "indices": 5,
          "material": 1,
          "mode": 4
        }
      ]
    },
    {
      "name": "PantallaBenQ",
      "primitives": [
        {
          "attributes": {
            "NORMAL": 7,
            "POSITION": 6
          },
          "indices": 8,
          "material": 2,
          "mode": 4
        }
      ]
    },
    {
      "name": "PantallaBenQ001",
      "primitives": [
        {
          "attributes": {
            "NORMAL": 10,
            "POSITION": 9
          },
          "indices": 11,
          "material": 2,
          "mode": 4
        }
      ]
    },
    {
      "name": "Box001",
      "primitives": [
        {
          "attributes": {
            "NORMAL": 13,
            "POSITION": 12
          },
          "indices": 14,
          "material": 1,
          "mode": 4
        }
      ]
    }
  ],
  "nodes": [
    {
      "matrix": [
        0.0254,
        0.0,
        0.0,
        0.0,
        0.0,
        0.0254,
        0.0,
        0.0,
        0.0,
        0.0,
        0.0254,
        0.0,
        0.0,
        0.0,
        0.0,
        1.0
      ],
      "mesh": 0,
      "name": "MesaEscala1:5"
    },
    {
      "children": [
        0
      ],
      "matrix": [
        1.0,
        0.0,
        0.0,
        0.0,
        0.0,
        0.0,
        -1.0,
        0.0,
        0.0,
        1.0,
        0.0,
        0.0,
        -0.171829070854187,
        0.0,
        0.01970467176437378,
        1.0
      ]
    },
    {
      "matrix": [
        0.0254,
        0.0,
        0.0,
        0.0,
        0.0,
        0.0254,
        0.0,
        0.0,
        0.0,
        0.0,
        0.0254,
        0.0,
        0.0,
        0.0,
        0.0,
        1.0
      ],
      "mesh": 1,
      "name": "Teclado"
    },
    {
      "children": [
        2
      ],
      "matrix": [
        1.0,
        0.0,
        0.0,
        0.0,
        0.0,
        -1.5099580252808664e-07,
        1.0,
        0.0,
        0.0,
        -1.0,
        -1.5099580252808664e-07,
        0.0,
        -0.5097457267761231,
        0.42737846755981446,
        0.3414329626083374,
        1.0
      ]
    },
    {
      "matrix": [
        0.0254,
        0.0,
        0.0,
        0.0,
        0.0,
        0.0254,
        0.0,
        0.0,
        0.0,
        0.0,
        0.0254,
        0.0,
        0.0,
        0.0,
        0.0,
        1.0
      ],
      "mesh": 2,
      "name": "PantallaBenQ"
    },
    {
      "children": [
        4
      ],
      "matrix": [
        0.8063876628875731,
        0.0,
        0.5913873314857483,
        0.0,
        0.5913873314857483,
        0.0,
        -0.8063876628875731,
        0.0,
        0.0,
        1.0,
        0.0,
        0.0,
        -0.11750094318389892,
        0.4252644493103027,
        0.6207200092315673,
        1.0
      ]
    },
    {
      "matrix": [
        0.0254,
        0.0,
        0.0,
        0.0,
        0.0,
        0.0254,
        0.0,
        0.0,
        0.0,
        0.0,
        0.0254,
        0.0,
        0.0,
        0.0,
        0.0,
        1.0
      ],
      "mesh": 3,
      "name": "PantallaBenQ001"
    },
    {
      "children": [
        6
      ],
      "matrix": [
        0.8688837885856628,
        0.0,
        0.4950161278247832,
        0.0,
        0.4950161278247832,
        0.0,
        -0.8688837885856628,
        0.0,
        0.0,
        1.0,
        0.0,
        0.0,
        -0.10508377475738526,
        0.4252644493103027,
        0.3199236892700195,
        1.0
      ]
    },
    {
      "matrix": [
        0.0254,
        0.0,
        0.0,
        0.0,
        0.0,
        0.0254,
        0.0,
        0.0,
        0.0,
        0.0,
        0.0254,
        0.0,
        0.0,
        0.0,
        0.0,
        1.0
      ],
      "mesh": 4,
      "name": "Box001"
    },
    {
      "children": [
        8
      ],
      "matrix": [
        1.0,
        0.0,
        0.0,
        0.0,
        0.0,
        0.0,
        -1.0,
        0.0,
        0.0,
        1.0,
        0.0,
        0.0,
        -0.16847428531646727,
        0.421640009689331,
        0.05441584033966064,
        1.0
      ]
    }
  ],
  "scenes": [
    {
      "nodes": [
        1,
        3,
        5,
        7,
        9
      ]
    }
  ]
}
