<svg xmlns="http://www.w3.org/2000/svg" xml:space="preserve" id="Layer_1" width="100%" x="0" y="0"
	version="1.1" viewBox="0 0 1024 1024">
	<path d="M547.998 729.345c-7.999-.001-15.5-.09-22.997.037-3.22.054-4.604-1.202-4.35-4.414.118-1.49.001-2.998.001-4.498.002-141.488.005-282.977.01-424.465 0-1.5.061-3 .023-4.499-.063-2.42.917-3.758 3.494-3.75 10.332.026 20.664-.007 30.996.032 3.511.014 5.242 2.63 6.873 5.151 6.56 10.138 11.05 21.294 15.302 32.495 21.925 57.767 41.34 116.426 61.893 174.682 18.28 51.819 36.303 103.729 54.459 155.592 1.037 2.96 1.845 6.037 4.122 9.358 1.033-2.533 1.972-4.573 2.71-6.683a653059.85 653059.85 0 0 0 67.032-191.95c20.141-57.698 40.304-115.388 60.355-173.118 1.398-4.023 3.35-5.823 7.868-5.68 10.488.33 20.996.187 31.493.042 3.61-.05 5.173 1.213 5.012 4.928-.194 4.491-.04 8.998-.04 13.497l-.006 414.466c0 1.667-.07 3.335-.018 5 .085 2.772-1.248 3.809-3.964 3.793-11.499-.066-22.999-.08-34.497.014-3.037.025-4.148-1.221-4.068-4.176.545-20.15.974-40.304 1.534-60.454.384-13.817 1.04-27.628 1.365-41.447.855-36.305 1.533-72.615 2.397-108.92.9-37.802 1.784-75.606 3.002-113.398.353-10.939.643-21.863.154-32.939-5.302 15.188-10.6 30.377-15.907 45.564-36.09 103.276-72.212 206.542-108.174 309.863-1.584 4.552-3.721 6.553-8.532 5.946-2.788-.352-5.702-.385-8.482-.002-6.618.91-10.612-2.327-13.817-7.62-8.95-14.785-14.676-30.983-20.771-47.007-15.158-39.845-30.156-79.75-45.256-119.617-16.162-42.672-32.364-85.328-48.56-127.987-.638-1.68-1.39-3.316-2.325-5.53-1.607 2.31-1.098 4.313-1.098 6.15-.023 97.325-.014 194.65-.01 291.976 0 1.5-.133 3.012.01 4.497.384 3.952-1.37 5.373-5.24 5.125-3.817-.245-7.661-.054-11.993-.054zM160.654 520c.019-19.164-.437-37.843.149-56.489 1.533-48.845 17.332-91.902 52.844-126.652 20.471-20.031 45.662-31.166 72.669-39.21 19.744-5.88 39.902-7.987 60.235-6.776 70.246 4.184 133.826 44.161 157.273 111.849 6.153 17.764 9.187 36.197 9.233 54.916.219 88.486.086 176.973.2 265.459.007 4.668-1.255 6.493-6.193 6.341-10.655-.326-21.327-.085-31.992-.098-6.39-.008-6.413-.026-6.414-6.785-.003-57.824.003-115.649.005-173.473 0-3.833-.092-7.668.01-11.497.078-2.957-1.17-4.342-4.147-4.213-1.496.064-2.998-.015-4.498-.015-82.154.005-164.308.012-246.462.02-7.309.002-7.311.01-7.311 7.525 0 60.491.002 120.982-.002 181.473 0 6.95-.017 6.967-6.787 6.977-10.832.016-21.672-.251-32.491.12-5.127.176-6.428-1.517-6.417-6.505.15-67.488.098-134.978.096-202.967m258.15-160.268c-31.188-20.07-64.957-28.258-101.908-22.62-48.386 7.384-81.898 33.874-101.084 78.57-9.238 21.522-11.19 44.365-10.546 67.542.209 7.515.046 7.53 7.723 7.53 80.288.006 160.575.009 240.863.012 3.498 0 7.001-.132 10.492.025 3.264.147 4.406-1.233 4.353-4.435-.133-8.16-.103-16.323-.018-24.485.19-18.249-3.084-35.846-10.919-52.326-9.137-19.217-19.812-37.414-38.955-49.813z"/>
<style>path{fill:#000}@media (prefers-color-scheme:dark){path{fill:#fff}}</style>
</svg>