<?xml version="1.0" standalone="no"?>
<!DOCTYPE svg PUBLIC "-//W3C//DTD SVG 20010904//EN"
 "http://www.w3.org/TR/2001/REC-SVG-20010904/DTD/svg10.dtd">
<svg version="1.0" xmlns="http://www.w3.org/2000/svg"
 width="512.000000pt" height="512.000000pt" viewBox="0 0 512.000000 512.000000"
 preserveAspectRatio="xMidYMid meet">

<g transform="translate(0.000000,512.000000) scale(0.100000,-0.100000)"
fill="#000000" stroke="none">
<path d="M158 3823 c-14 -9 -31 -27 -37 -40 -7 -16 -11 -147 -11 -379 l0 -356
29 -29 29 -29 196 0 c122 0 204 4 220 11 60 28 71 122 20 170 -24 22 -34 24
-154 27 l-129 4 -3 289 -3 289 -26 26 c-33 33 -94 41 -131 17z"/>
<path d="M962 3822 c-66 -24 -118 -65 -159 -126 -47 -68 -53 -102 -53 -282 0
-194 12 -242 78 -316 63 -69 128 -100 222 -106 60 -3 86 0 132 18 73 27 141
92 176 168 26 55 27 63 27 227 0 205 -11 247 -86 329 -85 94 -221 129 -337 88z
m142 -206 c60 -25 66 -44 66 -198 0 -80 -5 -147 -11 -162 -28 -60 -122 -71
-170 -20 -23 24 -24 34 -27 164 -4 157 6 191 61 215 40 18 41 18 81 1z"/>
<path d="M1751 3812 c-22 -21 -51 -97 -139 -362 -62 -184 -112 -345 -112 -358
0 -57 46 -101 106 -102 47 0 89 31 100 74 6 26 7 26 110 26 l104 0 14 -34 c29
-69 108 -88 164 -41 55 46 54 53 -73 436 -110 329 -119 352 -149 370 -46 28
-92 25 -125 -9z m88 -494 c1 -5 -10 -8 -24 -8 -28 0 -30 4 -13 51 l11 33 13
-34 c7 -19 13 -38 13 -42z"/>
<path d="M2305 3831 c-11 -5 -29 -19 -40 -31 -19 -21 -20 -39 -23 -374 -3
-313 -1 -354 14 -383 26 -49 53 -55 236 -51 147 3 167 6 206 26 66 35 119 88
149 150 28 56 28 59 28 247 l0 190 -34 63 c-38 69 -80 109 -151 144 -40 19
-64 22 -205 25 -88 1 -169 -1 -180 -6z m300 -217 c52 -24 65 -64 65 -198 0
-181 -25 -216 -155 -216 l-65 0 0 208 c0 115 3 212 7 215 12 13 115 7 148 -9z"/>
<path d="M3144 3821 c-17 -11 -36 -34 -43 -52 -7 -21 -11 -141 -11 -356 0
-347 3 -373 51 -407 30 -21 88 -21 118 0 48 34 51 60 51 409 0 359 -3 381 -59
409 -40 21 -69 20 -107 -3z"/>
<path d="M3554 3806 l-34 -34 0 -352 c0 -310 2 -355 17 -380 32 -55 112 -67
160 -26 l28 24 5 169 5 168 123 -182 c68 -101 132 -187 142 -193 48 -26 119
-5 145 44 14 27 16 71 13 383 l-3 351 -24 26 c-33 35 -85 44 -127 21 -18 -10
-36 -25 -41 -34 -4 -9 -10 -90 -13 -181 l-5 -164 -100 154 c-125 194 -167 240
-219 240 -30 0 -45 -7 -72 -34z"/>
<path d="M4605 3826 c-65 -20 -98 -42 -142 -89 -80 -86 -97 -157 -91 -364 3
-123 7 -144 30 -195 72 -156 250 -228 412 -168 185 70 263 343 131 459 -44 39
-91 51 -193 51 -90 0 -131 -15 -151 -54 -8 -17 -10 -10 -10 34 -2 107 38 130
229 130 l132 0 29 29 c47 48 37 130 -21 164 -23 14 -55 17 -172 16 -86 0 -159
-5 -183 -13z m120 -516 l77 0 -7 -27 c-16 -67 -91 -101 -150 -68 -40 21 -55
52 -55 110 l0 43 29 -29 c27 -27 35 -29 106 -29z"/>
<path d="M654 2660 c-194 -28 -379 -159 -467 -329 -61 -117 -72 -163 -72 -301
0 -102 4 -138 22 -195 62 -195 223 -356 418 -418 l70 -22 1945 0 1945 0 67 26
c99 39 173 86 242 155 72 73 118 145 154 246 24 65 27 87 27 203 0 144 -10
187 -71 305 -88 170 -256 290 -454 326 -61 11 -415 13 -1925 12 -1017 0 -1873
-4 -1901 -8z m3901 -249 c174 -86 269 -266 237 -453 -30 -170 -163 -311 -330
-347 -71 -15 -3736 -15 -3801 0 -77 17 -154 61 -214 121 -229 228 -133 605
178 704 32 10 427 12 1950 11 l1910 -2 70 -34z"/>
<path d="M651 2214 c-90 -45 -134 -140 -110 -238 16 -67 85 -138 151 -154 34
-9 318 -12 1062 -12 l1016 0 0 215 0 215 -1033 0 -1033 0 -53 -26z"/>
</g>
</svg>
