<?xml version="1.0" standalone="no"?>
<!DOCTYPE svg PUBLIC "-//W3C//DTD SVG 20010904//EN"
 "http://www.w3.org/TR/2001/REC-SVG-20010904/DTD/svg10.dtd">
<svg version="1.0" xmlns="http://www.w3.org/2000/svg"
 width="884.000000pt" height="532.000000pt" viewBox="0 0 884.000000 532.000000"
 preserveAspectRatio="xMidYMid meet">

<g transform="translate(0.000000,532.000000) scale(0.100000,-0.100000)"
fill="#fff" stroke="none">
<path d="M1785 4734 c-103 -26 -183 -70 -256 -139 -45 -43 -94 -182 -143 -405
-41 -183 -79 -308 -105 -341 -10 -13 -20 -35 -23 -49 -16 -73 -182 -634 -204
-690 -14 -36 -35 -87 -45 -115 -18 -46 -78 -248 -188 -635 -59 -208 -87 -291
-100 -299 -6 -4 -31 -77 -56 -162 -25 -85 -56 -190 -70 -234 -69 -228 -86
-297 -96 -380 -13 -120 -5 -171 40 -247 50 -83 117 -129 233 -160 l87 -23 73
19 c90 23 140 47 167 82 29 36 72 153 125 339 26 88 55 180 65 205 20 46 44
134 99 360 43 177 171 614 199 677 17 40 45 126 84 263 44 154 129 423 138
439 14 26 28 22 41 -11 7 -18 22 -53 35 -78 30 -59 65 -171 175 -550 50 -173
110 -369 135 -435 47 -130 78 -236 94 -330 22 -123 156 -581 201 -687 29 -67
77 -224 120 -388 58 -223 96 -326 136 -362 25 -22 105 -56 163 -69 62 -14 203
20 269 66 79 53 162 191 162 267 0 48 -31 175 -86 353 -49 160 -81 286 -94
365 -14 81 -59 238 -76 265 -14 22 -125 373 -206 650 -27 94 -61 202 -74 240
-65 180 -126 375 -225 718 -38 131 -79 257 -90 280 -12 23 -39 99 -61 171 -21
71 -58 193 -83 270 -45 144 -81 284 -89 349 -16 123 -60 212 -145 296 -52 51
-85 75 -127 91 -57 21 -161 34 -199 24z"/>
<path d="M4410 4160 c-46 -10 -200 -78 -224 -99 -48 -41 -46 17 -46 -1598 0
-1615 0 -1604 47 -1684 10 -16 58 -57 106 -91 l88 -60 99 -5 c94 -6 101 -5
163 25 85 39 150 99 168 154 12 36 14 236 14 1255 0 666 3 1215 7 1219 8 8 67
-29 113 -72 273 -253 520 -496 825 -811 145 -150 320 -296 388 -323 28 -11 41
-10 102 10 39 13 74 28 78 34 4 6 55 53 113 103 128 111 219 201 271 269 21
28 64 74 96 101 73 65 244 236 301 302 24 29 60 60 80 70 20 11 44 32 53 48
30 52 269 263 298 263 7 0 10 -379 10 -1212 0 -836 3 -1225 11 -1252 13 -46
87 -124 150 -157 38 -21 58 -24 154 -24 l110 0 83 44 c85 45 118 77 149 147
17 37 18 128 21 1614 3 1801 13 1619 -93 1676 -103 57 -164 67 -374 62 -147
-3 -193 -7 -221 -20 -19 -10 -66 -29 -105 -43 -38 -14 -88 -38 -110 -52 -54
-35 -216 -184 -340 -311 -55 -57 -109 -105 -120 -106 -12 -2 -21 -12 -23 -24
-2 -12 -46 -60 -97 -107 -63 -58 -98 -98 -106 -122 -6 -20 -24 -42 -41 -52
-30 -19 -265 -237 -351 -326 l-48 -50 -67 73 c-37 40 -87 85 -112 101 -25 16
-93 78 -152 137 -342 350 -738 740 -777 767 -59 41 -222 112 -289 126 -59 12
-347 13 -402 1z"/>
</g>
</svg>
